<svg id="eXRbt3xHPGU1" xmlns="http://www.w3.org/2000/svg" xmlns:xlink="http://www.w3.org/1999/xlink" viewBox="0 0 300 300" shape-rendering="geometricPrecision" text-rendering="geometricPrecision" project-id="1867cd2200b54d4089eaba6eb0c1c703" export-id="497f44e731674bcea46cd7a1761f198b" cached="false"><path d="M22.19388,160.17857c0-27.79035,22.52853-50.31888,50.31888-50.31888c10.19072,0,19.67389,3.02939,27.5981,8.23674L84.34449,136.24771c-3.56579-1.76635-7.58281-2.7592-11.83173-2.7592-14.74051,0-26.69005,11.94954-26.69005,26.69005c0,5.58788,1.7172,10.77469,4.65267,15.0615L34.71005,193.39015c-7.79131-8.86137-12.51617-20.4847-12.51617-33.21159v.00001Zm100.63776,0c0,27.79035-22.52853,50.31888-50.31888,50.31888-10.19073,0-19.6739-3.02939-27.5981-8.23675l15.76637-18.15128c3.56579,1.76635,7.58282,2.7592,11.83174,2.7592c14.74051,0,26.69005-11.94954,26.69005-26.69005c0-5.58788-1.7172-10.77469-4.65268-15.06151l15.76533-18.15009c7.79131,8.86137,12.51618,20.48471,12.51618,33.2116h-.00001Z" transform="matrix(2.980988 0 0 2.980985-66.159678-327.489917)" fill="#238300" stroke-width="0"/><ellipse rx="20.0702" ry="20.0702" transform="matrix(2.699642 0 0 2.699659 150.000029 150.000436)" fill="#f86f03" stroke-width="0"/></svg>
